<svg xmlns="http://www.w3.org/2000/svg" viewBox="0 0 64 64" id="ticket"><linearGradient id="a" x1="33.542" x2="33.542" y1="22.303" y2="63.069" gradientUnits="userSpaceOnUse"><stop offset="0" stop-color="#fff" stop-opacity=".25"></stop><stop offset="1" stop-color="#f86c66" stop-opacity=".9"></stop></linearGradient><path fill="url(#a)" d="M44.2 26.1c-1.2-1.3-2.5-2.5-4.1-3.2-1.9-.8-4.1-.7-6.1-.1s-3.8 1.6-5.6 2.7c-5.1 3-10.2 5.9-15.4 8.9-1 .6-2.2 1.2-3 2.3-1.5 1.9-1.4 4.7-.4 6.8 1 2.2 2.9 3.9 4.8 5.3 1.9 1.5 4 2.8 5.7 4.5 1.6 1.6 2.8 3.5 4.4 5.1 4.8 4.8 12.7 6.1 18.8 3.1 4.4-2.2 7.5-6.3 10.5-10.2 2.2-2.9 4.4-6 4.5-9.6 0-3.5-2.3-6.5-5.4-7.8-3.6-1.5-6.1-5.2-8.7-7.8z"></path><path fill="#9495fa" d="M25.2 8.1 51.1 34c-.3.1-.5.3-.8.6-1.2 1.2-1.2 3.2 0 4.4.2.2.4.4.7.5l-2.6 2.6c-.6-.6-1.6-.6-2.3 0-.6.6-.6 1.7 0 2.3l-2.3 2.3c-.6-.6-1.6-.6-2.3 0-.6.6-.6 1.6 0 2.3L39 51.5c-.1-.2-.3-.5-.5-.7-1.2-1.2-3.2-1.2-4.4 0-.2.2-.4.5-.6.8L7.6 25.8c.3-.1.5-.3.8-.6 1.2-1.2 1.2-3.2 0-4.4-.2-.2-.4-.4-.7-.5l2.6-2.6c.6.6 1.6.6 2.3 0 .6-.6.6-1.7 0-2.3l2.3-2.3c.6.6 1.6.6 2.3 0 .6-.6.6-1.6 0-2.3l2.6-2.6c.1.2.3.5.5.7 1.2 1.2 3.2 1.2 4.4 0 .2-.2.4-.5.5-.8z"></path><path fill="#0000db" d="M33.5 52.3c-.2 0-.3-.1-.4-.2l-26-25.9c-.1-.1-.2-.3-.1-.5 0-.2.1-.4.3-.4.2-.1.5-.3.6-.5.5-.5.7-1.1.7-1.8s-.3-1.3-.7-1.8c-.2-.2-.3-.3-.5-.4-.2-.1-.3-.3-.3-.4 0-.2 0-.4.2-.5l2.6-2.6c.2-.2.6-.2.9 0 .2.2.5.3.7.3.3 0 .5-.1.7-.3.2-.2.3-.4.3-.7s-.1-.5-.3-.7c-.1-.1-.2-.3-.2-.4s.1-.3.2-.4l2.3-2.3c.1-.1.3-.2.4-.2.2 0 .3.1.4.2.2.2.4.3.7.3.3 0 .5-.1.7-.3.2-.2.3-.4.3-.7 0-.3-.1-.5-.3-.7-.2-.2-.2-.6 0-.9l2.6-2.6c.1-.1.3-.2.5-.2s.4.1.4.3c.1.2.2.4.4.5 1 1 2.6 1 3.6 0 .2-.2.3-.4.5-.6.1-.2.3-.3.4-.3.2 0 .4 0 .5.2l25.9 25.9c.1.1.2.3.2.5s-.1.4-.3.4c-.2.1-.5.3-.6.5-.5.5-.7 1.1-.7 1.8s.3 1.3.7 1.8c.2.2.3.3.5.4.2.1.3.3.3.4 0 .2 0 .4-.2.5l-2.6 2.6c-.2.2-.6.2-.9 0-.2-.2-.4-.3-.7-.3-.3 0-.5.1-.7.3-.2.2-.3.4-.3.7s.1.5.3.7c.2.2.2.6 0 .9l-2.3 2.3c-.1.1-.3.2-.4.2-.2 0-.3-.1-.4-.2-.2-.2-.4-.3-.7-.3-.3 0-.5.1-.7.3-.2.2-.3.4-.3.7 0 .3.1.5.3.7.2.2.2.6 0 .9L39.4 52c-.1.1-.3.2-.5.2s-.4-.1-.4-.3c-.1-.2-.2-.4-.4-.5-.5-.5-1.1-.7-1.8-.7s-1.3.3-1.8.7c-.2.2-.3.4-.5.6-.1.1-.3.2-.5.3zm-25-26.4 24.8 24.8c.1-.1.2-.2.2-.3.7-.7 1.6-1.1 2.6-1.1s1.9.4 2.6 1.1c.1.1.1.1.1.2l1.7-1.7c-.2-.3-.3-.7-.3-1.1 0-.6.2-1.1.6-1.6.4-.4 1-.7 1.6-.6.4 0 .8.1 1.1.3l1.6-1.6c0-.3-.1-.7-.1-1 0-.6.2-1.1.7-1.6.4-.4 1-.6 1.6-.6.4 0 .8.1 1.1.3l1.7-1.7c-.1 0-.1-.1-.2-.1-1.5-1.5-1.5-3.8 0-5.3.1-.1.2-.2.3-.2l-24.9-25c-.1.1-.2.2-.2.3-1.5 1.5-3.8 1.5-5.3 0-.1-.1-.1-.1-.1-.2L18 10.9c.2.3.3.7.3 1.1 0 .6-.2 1.1-.6 1.6-.4.4-1 .6-1.6.6-.4 0-.8-.1-1.1-.3l-1.6 1.6c.2.3.3.7.3 1.1 0 .6-.2 1.1-.7 1.6-.4.4-1 .6-1.6.6-.4 0-.8-.1-1.1-.3l-1.7 1.7c.1 0 .1.1.2.1.7.7 1.1 1.7 1.1 2.7 0 1-.4 1.9-1.1 2.6l-.3.3z"></path><path fill="#fed3be" d="m45.7 37.2-9 9c-.5.5-1.4.5-1.9 0L13 24.5c-.5-.5-.5-1.4 0-1.9l9-9c.5-.5 1.4-.5 1.9 0l21.7 21.7c.6.5.6 1.4.1 1.9z"></path><path fill="#0000db" d="M35.7 47.2c-.5 0-1-.2-1.4-.6L12.6 24.9c-.4-.4-.6-.9-.6-1.4s.2-1 .6-1.4l9-9c.7-.7 2-.7 2.8 0l21.7 21.7c.4.4.6.9.6 1.4s-.2 1-.6 1.4l-9 9c-.4.4-.9.6-1.4.6zM23 13.8c-.2 0-.4.1-.5.2l-9 9c-.1.1-.2.3-.2.5s.1.4.2.5l21.7 21.7c.3.3.8.3 1.1 0l9-9c.1-.1.2-.3.2-.5s-.1-.4-.2-.5L23.5 14c-.1-.2-.3-.2-.5-.2z"></path><path fill="#f86c66" d="m20.5 19.6 2 1.7 2.5-.8-.9 2.4 1.4 2.2-2.6-.2-1.5 2-.7-2.4-2.4-.9 2.2-1.4z"></path><path fill="#0000db" d="M21.4 27.6h-.1c-.2 0-.4-.2-.5-.4l-.6-2.2-2.1-.8c-.2-.1-.4-.3-.4-.5s.1-.5.3-.6l1.9-1.2.1-2.2c0-.2.1-.4.4-.5.2-.1.5-.1.6.1l1.7 1.4 2.2-.6c.2-.1.5 0 .6.2s.2.4.1.6l-.8 2.1 1.3 1.9c.1.2.1.4 0 .6-.1.2-.3.3-.6.3l-2.2-.1-1.4 1.8c-.2 0-.3.1-.5.1zm-1.7-4.2 1.3.5c.2.1.3.2.4.4l.3 1.3.8-1.1c.1-.2.3-.2.5-.2l1.3.1-.8-1.1c-.1-.2-.1-.4-.1-.6l.5-1.3-1.3.4c-.2.1-.4 0-.6-.1l-1-.8v1.3c0 .2-.1.4-.3.5l-1 .7zm.8-1.2z"></path><path fill="#f86c66" d="m27.5 26.6 2 1.6 2.4-.7-.9 2.4 1.4 2.1-2.5-.2-1.6 2.1-.6-2.5-2.5-.9 2.2-1.4z"></path><path fill="#0000db" d="M28.3 34.5h-.1c-.2 0-.4-.2-.5-.4l-.6-2.2-2.1-.8c-.2-.1-.4-.3-.4-.5s.1-.5.3-.6l1.9-1.2.1-2.2c0-.2.1-.4.4-.5.2-.1.5-.1.6.1l1.7 1.4 2.2-.6c.2-.1.5 0 .6.2.2.2.2.4.1.6l-.8 2.1 1.3 1.9c.1.2.1.4 0 .6-.1.2-.3.3-.6.3l-2.2-.1-1.4 1.8c-.1 0-.3.1-.5.1zm-1.7-4.1 1.3.5c.2.1.3.2.4.4l.3 1.3.8-1.1c.1-.2.3-.2.5-.2l1.3.1-.8-1.1c-.1-.2-.1-.4-.1-.6l.5-1.2-1.3.4c-.2.1-.4 0-.6-.1l-1-.8v1.3c0 .2-.1.4-.3.5l-1 .6zm.8-1.3z"></path><path fill="#f86c66" d="m34.4 33.5 2 1.6 2.4-.7-.9 2.4 1.5 2.1-2.6-.1-1.6 2-.6-2.5-2.4-.8 2.1-1.4z"></path><path fill="#0000db" d="M35.2 41.4h-.1c-.2 0-.4-.2-.5-.4l-.6-2.2-2-.8c-.2-.1-.4-.3-.4-.5s.1-.5.3-.6l1.9-1.2.1-2.2c0-.2.1-.4.4-.5.2-.1.5-.1.6.1l1.7 1.4 2.2-.6c.2-.1.5 0 .6.2.2.2.2.4.1.6l-.8 2.1 1.3 1.9c.1.2.1.4 0 .6-.1.2-.3.3-.6.3l-2.2-.1-1.4 1.8c-.2 0-.4.1-.6.1zm-1.7-4.1 1.3.4c.2.1.3.2.4.4l.3 1.3.8-1.1c.1-.2.3-.2.5-.2l1.3.1-.8-1.1c-.1-.2-.1-.4-.1-.6l.5-1.2-1.3.4c-.2.1-.4 0-.6-.1l-1-.8v1.3c0 .2-.1.4-.3.5l-1 .7zm.8-1.2z"></path><path fill="none" stroke="#ff9d23" stroke-linecap="round" stroke-linejoin="round" stroke-miterlimit="10" stroke-width="1.397" d="m18.3 3.1 1.5-1.5L21.2 3"></path><path fill="none" stroke="#9495fa" stroke-linecap="round" stroke-linejoin="round" stroke-miterlimit="10" stroke-width="1.397" d="m54 59 1.5-1.5 1.4 1.3M5.5 34.3l-2.1 2"></path><path fill="none" stroke="#ff4b4d" stroke-linecap="round" stroke-linejoin="round" stroke-miterlimit="10" stroke-width="1.397" d="m42 15.5-2.4 2.4"></path><path fill="#0000db" d="M16 58.2c-.2 0-.4-.1-.5-.2-.3-.3-.3-.7 0-1l2.3-2.3c.3-.3.7-.3 1 0 .3.3.3.7 0 1L16.4 58c-.1.1-.3.2-.4.2z"></path><path fill="none" stroke="#ff9d23" stroke-linecap="round" stroke-linejoin="round" stroke-miterlimit="10" stroke-width="1.397" d="m60.6 23.3-2.4 2.3"></path></svg>